HIERARCHY
ROOT hip
{
	OFFSET 0.000000 0.000000 0.000000 
	CHANNELS 6 Xposition Yposition Zposition Xrotation Zrotation Yrotation
	JOINT abdomen
	{
		OFFSET 0.000000 3.402643 0.000000 
		CHANNELS 3 Xrotation Zrotation Yrotation
		JOINT chest
		{
			OFFSET 0.000000 8.438565 -0.680529 
			CHANNELS 3 Xrotation Zrotation Yrotation
			JOINT neck
			{
				OFFSET 0.000000 10.207942 -0.272212 
				CHANNELS 3 Xrotation Zrotation Yrotation
				JOINT head
				{
					OFFSET 0.000000 3.130431 0.000000 
					CHANNELS 3 Xrotation Zrotation Yrotation
					End Site
					{
						OFFSET 0.000000 3.130435 0.000000 
					}
				}
			}
			JOINT lCollar
			{
				OFFSET 3.470700 6.669187 -0.816635 
				CHANNELS 3 Yrotation Zrotation Xrotation
				JOINT lShldr
				{
					OFFSET 3.198488 0.000000 0.000000 
					CHANNELS 3 Zrotation Yrotation Xrotation
					JOINT lForeArm
					{
						OFFSET 10.139888 0.000000 0.000000 
						CHANNELS 3 Yrotation Zrotation Xrotation
						JOINT lHand
						{
							OFFSET 8.370511 0.000000 0.000000 
							CHANNELS 3 Zrotation Yrotation Xrotation
							End Site
							{
								OFFSET 4.083176 0.000000 0.000000 
							}
						}
					}
				}
			}
			JOINT rCollar
			{
				OFFSET -3.470700 6.669187 -0.816635 
				CHANNELS 3 Yrotation Zrotation Xrotation
				JOINT rShldr
				{
					OFFSET -3.198488 0.000000 0.000000 
					CHANNELS 3 Zrotation Yrotation Xrotation
					JOINT rForeArm
					{
						OFFSET -10.139888 0.000000 0.000000 
						CHANNELS 3 Yrotation Zrotation Xrotation
						JOINT rHand
						{
							OFFSET -8.370511 0.000000 0.000000 
							CHANNELS 3 Zrotation Yrotation Xrotation
							End Site
							{
								OFFSET -4.083176 0.000000 0.000000 
							}
						}
					}
				}
			}
		}
	}
	JOINT lThigh
	{
		OFFSET 5.308129 -1.633274 1.361059 
		CHANNELS 3 Xrotation Zrotation Yrotation
		JOINT lShin
		{
			OFFSET -2.041588 -20.007561 0.000000 
			CHANNELS 3 Xrotation Zrotation Yrotation
			JOINT lFoot
			{
				OFFSET 0.000000 -19.190928 -1.224953 
				CHANNELS 3 Xrotation Yrotation Zrotation
				End Site
				{
					OFFSET 0.000000 -2.449906 4.627600 
				}
			}
		}
	}
	JOINT rThigh
	{
		OFFSET -5.308129 -1.633274 1.361059 
		CHANNELS 3 Xrotation Zrotation Yrotation
		JOINT rShin
		{
			OFFSET 2.041588 -20.007561 0.000000 
			CHANNELS 3 Xrotation Zrotation Yrotation
			JOINT rFoot
			{
				OFFSET 0.000000 -19.190928 -1.224953 
				CHANNELS 3 Xrotation Yrotation Zrotation
				End Site
				{
					OFFSET 0.000000 -2.449906 4.627600 
				}
			}
		}
	}
}
MOTION
Frames: 13
Frame Time: 0.016667
-5.662498 44.303295 -2.499572 7.447660 3.747500 8.370610 -18.391001 3.319440 -1.431780 16.669800 0.399470 -0.232218 35.311337 -14.690679 -9.308565 19.972700 4.080670 -2.578400 2.000000 -2.000000 0.000000 -68.702400 34.280102 -162.235992 88.115799 -0.219345 0.136688 0.066909 -0.062106 -159.695007 -2.000000 2.000000 0.000000 18.547001 -24.278601 -149.401993 -84.600098 0.227715 0.136118 -0.059245 -0.029378 -122.801003 -27.163357 1.332520 -3.461485 34.342068 2.422056 2.589836 -22.359953 -4.677253 -0.908256 -12.924155 -2.936676 -1.208395 21.283091 -2.824811 -1.698909 -25.985130 1.495722 0.129880 
-5.433239 44.285954 -2.559774 7.649940 3.358580 8.878950 -18.609301 3.916600 -1.564220 16.405800 0.886341 -0.230330 35.491405 -14.208914 -9.679941 19.985300 4.202500 -2.806540 2.000000 -2.000000 0.000000 -68.291801 34.448002 -161.416000 89.072800 -0.217062 0.136744 0.066531 -0.061198 -159.343994 -2.000000 2.000000 0.000000 19.616199 -22.969500 -154.292007 -84.024002 0.229083 0.135981 -0.057653 -0.022393 -125.359001 -27.478600 1.049107 -3.563974 33.921963 2.405601 2.583371 -22.890471 -3.835049 -0.674573 -12.925084 -2.866599 -1.270517 20.900990 -2.803276 -1.681243 -26.207129 1.365309 -0.011434 
-5.204000 44.268730 -2.619975 7.852410 2.969990 9.384490 -18.839600 4.506190 -1.690070 16.151100 1.382620 -0.243200 35.667591 -13.736110 -10.057178 20.007700 4.324090 -3.033920 2.000000 -2.000000 0.000000 -67.881203 34.606098 -160.595993 90.049400 -0.214723 0.156293 0.066158 -0.060286 -158.992004 -2.000000 2.000000 0.000000 20.557199 -21.582100 -159.097000 -83.447800 0.230450 0.135831 -0.056378 -0.015371 -127.907997 -27.810246 0.765265 -3.663220 33.444313 2.370577 2.572743 -23.368134 -3.002781 -0.413631 -13.024013 -2.764416 -1.319371 20.693878 -2.799330 -1.664133 -26.497931 1.175612 -0.135440 
-4.908440 44.215530 -2.698084 7.633970 2.448830 9.791130 -18.895599 5.401080 -1.834220 15.855900 2.199610 -0.239285 35.714336 -13.123659 -10.421992 19.972900 4.503410 -3.288000 2.000000 -2.000000 0.000000 -66.825401 34.755798 -159.164993 91.465401 -0.211103 0.156244 0.065350 -0.058254 -158.210999 -2.000000 2.000000 0.000000 23.285400 -19.270000 -166.621002 -82.373596 0.232993 0.135515 -0.055336 -0.007565 -130.720993 -27.835976 0.762749 -3.235205 34.015488 2.341085 2.602137 -22.957230 -2.950620 -0.469840 -12.818505 -2.533846 -1.496473 20.682573 -2.807530 -1.655496 -26.697556 1.051572 -0.251694 
-4.612866 44.162460 -2.776205 7.416290 1.917430 10.200900 -18.956400 6.295530 -1.981520 15.569200 3.015900 -0.243170 35.770603 -12.514461 -10.794252 19.937901 4.673410 -3.545750 2.000000 -2.000000 0.000000 -65.769402 34.895699 -157.729996 92.881401 -0.207486 0.156107 0.064560 -0.056184 -157.419998 -2.000000 2.000000 0.000000 -154.360001 -163.354996 6.071340 -81.289597 0.235554 0.135147 -0.054677 -0.009456 -133.542999 -27.823582 0.765551 -2.820469 34.488483 2.315515 2.633745 -22.485575 -2.912226 -0.533120 -12.607557 -2.319902 -1.671445 20.660021 -2.826393 -1.649338 -26.935049 0.945067 -0.367733 
-4.366452 44.098717 -2.835732 7.092450 1.550550 10.329800 -18.943899 6.975190 -2.004300 15.350900 3.627590 -0.213050 35.749176 -11.786901 -10.961030 19.846500 4.929560 -3.725380 2.000000 -2.000000 0.000000 -64.273598 34.830299 -156.373001 94.121696 -0.204321 0.155913 0.063688 -0.053795 -156.511993 -2.000000 2.000000 0.000000 -151.285004 -165.781998 -0.416834 -80.693901 0.236958 0.134924 -0.054398 0.000219 -137.000000 -27.578068 0.792258 -2.823061 35.138115 2.291458 2.681978 -21.864738 -3.289666 -0.724700 -12.362256 -2.206432 -2.015509 20.768194 -2.830938 -1.658250 -26.851967 1.143321 -0.291189 
-4.120049 44.034981 -2.895283 6.769030 1.183100 10.462900 -18.934000 7.658470 -2.018540 15.131700 4.229090 -0.176273 35.715912 -11.065110 -11.142198 19.755400 5.185920 -3.916480 2.000000 -2.000000 0.000000 -62.787399 34.745300 -155.014999 95.361900 -0.201161 0.155650 0.062854 -0.051392 -155.602997 -2.000000 2.000000 0.000000 -148.533005 -168.531998 -6.699060 -80.088402 0.238382 0.134683 -0.054704 0.009894 -140.457001 -27.313263 0.810099 -2.825182 35.796860 2.277107 2.732193 -21.256077 -3.649709 -0.901188 -12.178425 -2.085395 -2.352281 20.953100 -2.851481 -1.668863 -26.777252 1.349573 -0.232494 
-3.772643 43.953892 -2.946723 6.338510 0.795887 10.567000 -18.890800 8.426640 -1.973810 14.950700 4.830410 -0.112192 35.771049 -10.517549 -11.528233 19.729700 5.318340 -4.164580 2.000000 -2.000000 0.000000 -60.117901 34.085300 -153.147995 96.983002 -0.197041 0.155204 0.062235 -0.049523 -154.899994 -2.000000 2.000000 0.000000 35.826900 -7.524340 165.479996 -79.824699 0.239002 0.134574 -0.056209 0.024029 -145.535004 -26.894714 0.746716 -3.211077 36.659657 2.278316 2.773180 -20.411381 -4.311220 -1.176677 -11.871599 -1.981870 -2.447797 21.271261 -2.901848 -1.663489 -27.028156 1.438796 -0.191335 
-3.425237 43.872807 -2.998152 5.918120 0.407970 10.677100 -18.850000 9.186040 -1.924700 14.768900 5.421610 -0.040273 35.797985 -9.959994 -11.897694 19.714199 5.459910 -4.410150 2.000000 -2.000000 0.000000 -57.497002 33.356701 -151.335007 98.604103 -0.192934 0.154641 0.061630 -0.047621 -154.186996 -2.000000 2.000000 0.000000 39.580101 -3.034780 158.020004 -79.551300 0.239644 0.134457 -0.058966 0.038003 -150.623001 -26.416456 0.713322 -3.596955 37.348309 2.241661 2.805713 -19.466482 -5.005229 -1.419767 -11.544466 -1.871728 -2.561026 21.495365 -2.927148 -1.684335 -27.219145 1.565104 -0.171134 
-3.120273 43.814457 -3.004307 5.683620 0.184635 10.516500 -18.739401 9.739570 -1.698680 14.795200 5.742530 0.115898 35.935608 -9.534638 -12.361621 19.823400 5.503780 -4.669900 2.000000 -2.000000 0.000000 -55.012699 32.168201 -149.916000 99.795502 -0.189928 0.154154 0.061582 -0.047464 -154.128998 -2.000000 2.000000 0.000000 42.738899 0.560281 152.921005 -79.580597 0.239575 0.134469 -0.072213 0.050173 -155.143997 -25.984421 0.700645 -3.702636 37.506084 2.237923 2.830414 -18.856817 -5.096379 -1.440033 -11.413067 -1.924656 -2.718055 21.746693 -2.964318 -1.687160 -27.181185 1.754573 -0.076685 
-2.815309 43.756123 -3.010463 5.449220 -0.038886 10.357600 -18.618900 10.288400 -1.458660 14.831100 6.063580 0.282178 36.057796 -9.093327 -12.821196 19.942801 5.556680 -4.924930 2.000000 -2.000000 0.000000 -52.596802 30.930700 -148.561005 100.987000 -0.186932 0.153604 0.061533 -0.057073 -154.070007 -2.000000 2.000000 0.000000 45.575298 4.427890 148.016998 -79.600098 0.239529 0.134478 -0.076632 0.062006 -159.656006 -25.600382 0.686950 -3.795100 37.710854 2.248785 2.829701 -18.238693 -5.216438 -1.442769 -11.280967 -1.978229 -2.874817 21.948528 -2.997196 -1.671021 -27.083233 1.957411 -0.020408 
-2.379560 43.682358 -2.994601 5.302770 -0.223648 10.174500 -18.794800 11.074100 -1.455250 14.595900 6.857610 0.321331 35.999275 -8.581319 -12.944068 19.865101 5.906890 -5.127300 2.000000 -2.000000 0.000000 -49.594200 29.606400 -146.692993 102.060997 -0.184241 0.153055 0.061769 -0.048064 -154.352997 -2.000000 2.000000 0.000000 49.124802 8.860700 143.464996 -79.912598 0.238795 0.134610 -0.083423 0.076211 -165.281006 -25.049726 0.591267 -3.857499 37.377979 2.242585 2.815152 -17.727764 -4.633118 -1.249188 -11.223932 -2.187687 -2.815944 22.248110 -3.045384 -1.685751 -27.184790 2.071614 0.013570 
-1.943800 43.608601 -2.978728 5.146620 -0.408503 9.992440 -18.964800 11.859100 -1.453590 14.358500 7.660570 0.362885 35.941269 -8.069346 -13.065547 19.797899 6.257050 -5.339380 2.000000 -2.000000 0.000000 -46.679600 28.203600 -144.919006 103.135002 -0.181560 0.152456 0.062009 -0.048820 -154.636993 -2.000000 2.000000 0.000000 52.362202 13.546500 139.145996 -80.225098 0.238061 0.134739 -0.081793 0.089660 -170.895996 -24.547688 0.472205 -3.913358 37.111164 2.267572 2.789952 -17.259264 -4.046178 -1.050508 -11.057508 -2.410680 -2.780604 22.413092 -3.067870 -1.697603 -27.254055 2.231356 0.055353 
